<mxfile host="app.diagrams.net" modified="2021-09-15T10:35:01.438Z" agent="5.0 (Macintosh; Intel Mac OS X 10_15_7) AppleWebKit/537.36 (KHTML, like Gecko) Chrome/93.0.4577.63 Safari/537.36" etag="rdTSKirDhUVPDLsIybXY" version="15.0.3" type="github">
  <diagram id="R2lEEEUBdFMjLlhIrx00" name="Page-1">
    <mxGraphModel dx="1577" dy="982" grid="1" gridSize="10" guides="1" tooltips="1" connect="1" arrows="1" fold="1" page="1" pageScale="1" pageWidth="1169" pageHeight="827" background="#F1FAEE" math="0" shadow="0" extFonts="Permanent Marker^https://fonts.googleapis.com/css?family=Permanent+Marker">
      <root>
        <mxCell id="0" />
        <mxCell id="1" parent="0" />
        <mxCell id="C-vyLk0tnHw3VtMMgP7b-2" value="movie " style="shape=table;startSize=30;container=1;collapsible=1;childLayout=tableLayout;fixedRows=1;rowLines=0;fontStyle=1;align=center;resizeLast=1;fillColor=#A8DADC;strokeColor=#457B9D;fontColor=#1D3557;" parent="1" vertex="1">
          <mxGeometry x="880" y="280" width="250" height="340" as="geometry" />
        </mxCell>
        <mxCell id="C-vyLk0tnHw3VtMMgP7b-3" value="" style="shape=partialRectangle;collapsible=0;dropTarget=0;pointerEvents=0;fillColor=none;points=[[0,0.5],[1,0.5]];portConstraint=eastwest;top=0;left=0;right=0;bottom=1;strokeColor=#457B9D;fontColor=#1D3557;" parent="C-vyLk0tnHw3VtMMgP7b-2" vertex="1">
          <mxGeometry y="30" width="250" height="30" as="geometry" />
        </mxCell>
        <mxCell id="C-vyLk0tnHw3VtMMgP7b-4" value="PK" style="shape=partialRectangle;overflow=hidden;connectable=0;fillColor=none;top=0;left=0;bottom=0;right=0;fontStyle=1;strokeColor=#457B9D;fontColor=#1D3557;" parent="C-vyLk0tnHw3VtMMgP7b-3" vertex="1">
          <mxGeometry width="90" height="30" as="geometry" />
        </mxCell>
        <mxCell id="C-vyLk0tnHw3VtMMgP7b-5" value="Movie Id" style="shape=partialRectangle;overflow=hidden;connectable=0;fillColor=none;top=0;left=0;bottom=0;right=0;align=left;spacingLeft=6;fontStyle=5;strokeColor=#457B9D;fontColor=#1D3557;" parent="C-vyLk0tnHw3VtMMgP7b-3" vertex="1">
          <mxGeometry x="90" width="160" height="30" as="geometry" />
        </mxCell>
        <mxCell id="C-vyLk0tnHw3VtMMgP7b-6" value="" style="shape=partialRectangle;collapsible=0;dropTarget=0;pointerEvents=0;fillColor=none;points=[[0,0.5],[1,0.5]];portConstraint=eastwest;top=0;left=0;right=0;bottom=0;strokeColor=#457B9D;fontColor=#1D3557;" parent="C-vyLk0tnHw3VtMMgP7b-2" vertex="1">
          <mxGeometry y="60" width="250" height="30" as="geometry" />
        </mxCell>
        <mxCell id="C-vyLk0tnHw3VtMMgP7b-7" value="FK1" style="shape=partialRectangle;overflow=hidden;connectable=0;fillColor=none;top=0;left=0;bottom=0;right=0;strokeColor=#457B9D;fontColor=#1D3557;" parent="C-vyLk0tnHw3VtMMgP7b-6" vertex="1">
          <mxGeometry width="90" height="30" as="geometry" />
        </mxCell>
        <mxCell id="C-vyLk0tnHw3VtMMgP7b-8" value="" style="shape=partialRectangle;overflow=hidden;connectable=0;fillColor=none;top=0;left=0;bottom=0;right=0;align=left;spacingLeft=6;strokeColor=#457B9D;fontColor=#1D3557;" parent="C-vyLk0tnHw3VtMMgP7b-6" vertex="1">
          <mxGeometry x="90" width="160" height="30" as="geometry" />
        </mxCell>
        <mxCell id="C-vyLk0tnHw3VtMMgP7b-9" value="" style="shape=partialRectangle;collapsible=0;dropTarget=0;pointerEvents=0;fillColor=none;points=[[0,0.5],[1,0.5]];portConstraint=eastwest;top=0;left=0;right=0;bottom=0;strokeColor=#457B9D;fontColor=#1D3557;" parent="C-vyLk0tnHw3VtMMgP7b-2" vertex="1">
          <mxGeometry y="90" width="250" height="30" as="geometry" />
        </mxCell>
        <mxCell id="C-vyLk0tnHw3VtMMgP7b-10" value="Release date" style="shape=partialRectangle;overflow=hidden;connectable=0;fillColor=none;top=0;left=0;bottom=0;right=0;strokeColor=#457B9D;fontColor=#1D3557;" parent="C-vyLk0tnHw3VtMMgP7b-9" vertex="1">
          <mxGeometry width="90" height="30" as="geometry" />
        </mxCell>
        <mxCell id="C-vyLk0tnHw3VtMMgP7b-11" value="string " style="shape=partialRectangle;overflow=hidden;connectable=0;fillColor=none;top=0;left=0;bottom=0;right=0;align=left;spacingLeft=6;strokeColor=#457B9D;fontColor=#1D3557;" parent="C-vyLk0tnHw3VtMMgP7b-9" vertex="1">
          <mxGeometry x="90" width="160" height="30" as="geometry" />
        </mxCell>
        <mxCell id="KycW4tC0qBG2q9IRIVnm-11" value="" style="shape=partialRectangle;collapsible=0;dropTarget=0;pointerEvents=0;fillColor=none;points=[[0,0.5],[1,0.5]];portConstraint=eastwest;top=0;left=0;right=0;bottom=0;strokeColor=#457B9D;fontColor=#1D3557;" vertex="1" parent="C-vyLk0tnHw3VtMMgP7b-2">
          <mxGeometry y="120" width="250" height="30" as="geometry" />
        </mxCell>
        <mxCell id="KycW4tC0qBG2q9IRIVnm-12" value="Genre" style="shape=partialRectangle;overflow=hidden;connectable=0;fillColor=none;top=0;left=0;bottom=0;right=0;strokeColor=#457B9D;fontColor=#1D3557;" vertex="1" parent="KycW4tC0qBG2q9IRIVnm-11">
          <mxGeometry width="90" height="30" as="geometry" />
        </mxCell>
        <mxCell id="KycW4tC0qBG2q9IRIVnm-13" value="array of genres" style="shape=partialRectangle;overflow=hidden;connectable=0;fillColor=none;top=0;left=0;bottom=0;right=0;align=left;spacingLeft=6;strokeColor=#457B9D;fontColor=#1D3557;" vertex="1" parent="KycW4tC0qBG2q9IRIVnm-11">
          <mxGeometry x="90" width="160" height="30" as="geometry" />
        </mxCell>
        <mxCell id="KycW4tC0qBG2q9IRIVnm-27" value="" style="shape=partialRectangle;collapsible=0;dropTarget=0;pointerEvents=0;fillColor=none;points=[[0,0.5],[1,0.5]];portConstraint=eastwest;top=0;left=0;right=0;bottom=0;strokeColor=#457B9D;fontColor=#1D3557;" vertex="1" parent="C-vyLk0tnHw3VtMMgP7b-2">
          <mxGeometry y="150" width="250" height="30" as="geometry" />
        </mxCell>
        <mxCell id="KycW4tC0qBG2q9IRIVnm-28" value="Rating" style="shape=partialRectangle;overflow=hidden;connectable=0;fillColor=none;top=0;left=0;bottom=0;right=0;strokeColor=#457B9D;fontColor=#1D3557;" vertex="1" parent="KycW4tC0qBG2q9IRIVnm-27">
          <mxGeometry width="90" height="30" as="geometry" />
        </mxCell>
        <mxCell id="KycW4tC0qBG2q9IRIVnm-29" value="number" style="shape=partialRectangle;overflow=hidden;connectable=0;fillColor=none;top=0;left=0;bottom=0;right=0;align=left;spacingLeft=6;strokeColor=#457B9D;fontColor=#1D3557;" vertex="1" parent="KycW4tC0qBG2q9IRIVnm-27">
          <mxGeometry x="90" width="160" height="30" as="geometry" />
        </mxCell>
        <mxCell id="KycW4tC0qBG2q9IRIVnm-30" value="" style="shape=partialRectangle;collapsible=0;dropTarget=0;pointerEvents=0;fillColor=none;points=[[0,0.5],[1,0.5]];portConstraint=eastwest;top=0;left=0;right=0;bottom=0;strokeColor=#457B9D;fontColor=#1D3557;" vertex="1" parent="C-vyLk0tnHw3VtMMgP7b-2">
          <mxGeometry y="180" width="250" height="30" as="geometry" />
        </mxCell>
        <mxCell id="KycW4tC0qBG2q9IRIVnm-31" value="title" style="shape=partialRectangle;overflow=hidden;connectable=0;fillColor=none;top=0;left=0;bottom=0;right=0;strokeColor=#457B9D;fontColor=#1D3557;" vertex="1" parent="KycW4tC0qBG2q9IRIVnm-30">
          <mxGeometry width="90" height="30" as="geometry" />
        </mxCell>
        <mxCell id="KycW4tC0qBG2q9IRIVnm-32" value="string" style="shape=partialRectangle;overflow=hidden;connectable=0;fillColor=none;top=0;left=0;bottom=0;right=0;align=left;spacingLeft=6;strokeColor=#457B9D;fontColor=#1D3557;" vertex="1" parent="KycW4tC0qBG2q9IRIVnm-30">
          <mxGeometry x="90" width="160" height="30" as="geometry" />
        </mxCell>
        <mxCell id="KycW4tC0qBG2q9IRIVnm-33" value="" style="shape=partialRectangle;collapsible=0;dropTarget=0;pointerEvents=0;fillColor=none;points=[[0,0.5],[1,0.5]];portConstraint=eastwest;top=0;left=0;right=0;bottom=0;strokeColor=#457B9D;fontColor=#1D3557;" vertex="1" parent="C-vyLk0tnHw3VtMMgP7b-2">
          <mxGeometry y="210" width="250" height="30" as="geometry" />
        </mxCell>
        <mxCell id="KycW4tC0qBG2q9IRIVnm-34" value="description" style="shape=partialRectangle;overflow=hidden;connectable=0;fillColor=none;top=0;left=0;bottom=0;right=0;strokeColor=#457B9D;fontColor=#1D3557;" vertex="1" parent="KycW4tC0qBG2q9IRIVnm-33">
          <mxGeometry width="90" height="30" as="geometry" />
        </mxCell>
        <mxCell id="KycW4tC0qBG2q9IRIVnm-35" value="string" style="shape=partialRectangle;overflow=hidden;connectable=0;fillColor=none;top=0;left=0;bottom=0;right=0;align=left;spacingLeft=6;strokeColor=#457B9D;fontColor=#1D3557;" vertex="1" parent="KycW4tC0qBG2q9IRIVnm-33">
          <mxGeometry x="90" width="160" height="30" as="geometry" />
        </mxCell>
        <mxCell id="KycW4tC0qBG2q9IRIVnm-36" value="" style="shape=partialRectangle;collapsible=0;dropTarget=0;pointerEvents=0;fillColor=none;points=[[0,0.5],[1,0.5]];portConstraint=eastwest;top=0;left=0;right=0;bottom=0;strokeColor=#457B9D;fontColor=#1D3557;" vertex="1" parent="C-vyLk0tnHw3VtMMgP7b-2">
          <mxGeometry y="240" width="250" height="30" as="geometry" />
        </mxCell>
        <mxCell id="KycW4tC0qBG2q9IRIVnm-37" value="overview" style="shape=partialRectangle;overflow=hidden;connectable=0;fillColor=none;top=0;left=0;bottom=0;right=0;strokeColor=#457B9D;fontColor=#1D3557;" vertex="1" parent="KycW4tC0qBG2q9IRIVnm-36">
          <mxGeometry width="90" height="30" as="geometry" />
        </mxCell>
        <mxCell id="KycW4tC0qBG2q9IRIVnm-38" value="string" style="shape=partialRectangle;overflow=hidden;connectable=0;fillColor=none;top=0;left=0;bottom=0;right=0;align=left;spacingLeft=6;strokeColor=#457B9D;fontColor=#1D3557;" vertex="1" parent="KycW4tC0qBG2q9IRIVnm-36">
          <mxGeometry x="90" width="160" height="30" as="geometry" />
        </mxCell>
        <mxCell id="KycW4tC0qBG2q9IRIVnm-39" value="" style="shape=partialRectangle;collapsible=0;dropTarget=0;pointerEvents=0;fillColor=none;points=[[0,0.5],[1,0.5]];portConstraint=eastwest;top=0;left=0;right=0;bottom=0;strokeColor=#457B9D;fontColor=#1D3557;" vertex="1" parent="C-vyLk0tnHw3VtMMgP7b-2">
          <mxGeometry y="270" width="250" height="30" as="geometry" />
        </mxCell>
        <mxCell id="KycW4tC0qBG2q9IRIVnm-40" value="poster" style="shape=partialRectangle;overflow=hidden;connectable=0;fillColor=none;top=0;left=0;bottom=0;right=0;strokeColor=#457B9D;fontColor=#1D3557;" vertex="1" parent="KycW4tC0qBG2q9IRIVnm-39">
          <mxGeometry width="90" height="30" as="geometry" />
        </mxCell>
        <mxCell id="KycW4tC0qBG2q9IRIVnm-41" value="string" style="shape=partialRectangle;overflow=hidden;connectable=0;fillColor=none;top=0;left=0;bottom=0;right=0;align=left;spacingLeft=6;strokeColor=#457B9D;fontColor=#1D3557;" vertex="1" parent="KycW4tC0qBG2q9IRIVnm-39">
          <mxGeometry x="90" width="160" height="30" as="geometry" />
        </mxCell>
        <mxCell id="KycW4tC0qBG2q9IRIVnm-101" value="" style="shape=partialRectangle;collapsible=0;dropTarget=0;pointerEvents=0;fillColor=none;points=[[0,0.5],[1,0.5]];portConstraint=eastwest;top=0;left=0;right=0;bottom=0;strokeColor=#457B9D;fontColor=#1D3557;" vertex="1" parent="C-vyLk0tnHw3VtMMgP7b-2">
          <mxGeometry y="300" width="250" height="30" as="geometry" />
        </mxCell>
        <mxCell id="KycW4tC0qBG2q9IRIVnm-102" value="duration" style="shape=partialRectangle;overflow=hidden;connectable=0;fillColor=none;top=0;left=0;bottom=0;right=0;strokeColor=#457B9D;fontColor=#1D3557;" vertex="1" parent="KycW4tC0qBG2q9IRIVnm-101">
          <mxGeometry width="90" height="30" as="geometry" />
        </mxCell>
        <mxCell id="KycW4tC0qBG2q9IRIVnm-103" value="string" style="shape=partialRectangle;overflow=hidden;connectable=0;fillColor=none;top=0;left=0;bottom=0;right=0;align=left;spacingLeft=6;strokeColor=#457B9D;fontColor=#1D3557;" vertex="1" parent="KycW4tC0qBG2q9IRIVnm-101">
          <mxGeometry x="90" width="160" height="30" as="geometry" />
        </mxCell>
        <mxCell id="C-vyLk0tnHw3VtMMgP7b-13" value="transaction" style="shape=table;startSize=30;container=1;collapsible=1;childLayout=tableLayout;fixedRows=1;rowLines=0;fontStyle=1;align=center;resizeLast=1;fillColor=#A8DADC;strokeColor=#457B9D;fontColor=#1D3557;" parent="1" vertex="1">
          <mxGeometry x="470" y="40" width="250" height="220" as="geometry" />
        </mxCell>
        <mxCell id="C-vyLk0tnHw3VtMMgP7b-14" value="" style="shape=partialRectangle;collapsible=0;dropTarget=0;pointerEvents=0;fillColor=none;points=[[0,0.5],[1,0.5]];portConstraint=eastwest;top=0;left=0;right=0;bottom=1;strokeColor=#457B9D;fontColor=#1D3557;" parent="C-vyLk0tnHw3VtMMgP7b-13" vertex="1">
          <mxGeometry y="30" width="250" height="30" as="geometry" />
        </mxCell>
        <mxCell id="C-vyLk0tnHw3VtMMgP7b-15" value="PK" style="shape=partialRectangle;overflow=hidden;connectable=0;fillColor=none;top=0;left=0;bottom=0;right=0;fontStyle=1;strokeColor=#457B9D;fontColor=#1D3557;" parent="C-vyLk0tnHw3VtMMgP7b-14" vertex="1">
          <mxGeometry width="80" height="30" as="geometry" />
        </mxCell>
        <mxCell id="C-vyLk0tnHw3VtMMgP7b-16" value="id" style="shape=partialRectangle;overflow=hidden;connectable=0;fillColor=none;top=0;left=0;bottom=0;right=0;align=left;spacingLeft=6;fontStyle=5;strokeColor=#457B9D;fontColor=#1D3557;" parent="C-vyLk0tnHw3VtMMgP7b-14" vertex="1">
          <mxGeometry x="80" width="170" height="30" as="geometry" />
        </mxCell>
        <mxCell id="C-vyLk0tnHw3VtMMgP7b-17" value="" style="shape=partialRectangle;collapsible=0;dropTarget=0;pointerEvents=0;fillColor=none;points=[[0,0.5],[1,0.5]];portConstraint=eastwest;top=0;left=0;right=0;bottom=0;strokeColor=#457B9D;fontColor=#1D3557;" parent="C-vyLk0tnHw3VtMMgP7b-13" vertex="1">
          <mxGeometry y="60" width="250" height="30" as="geometry" />
        </mxCell>
        <mxCell id="C-vyLk0tnHw3VtMMgP7b-18" value="FK1" style="shape=partialRectangle;overflow=hidden;connectable=0;fillColor=none;top=0;left=0;bottom=0;right=0;strokeColor=#457B9D;fontColor=#1D3557;" parent="C-vyLk0tnHw3VtMMgP7b-17" vertex="1">
          <mxGeometry width="80" height="30" as="geometry" />
        </mxCell>
        <mxCell id="C-vyLk0tnHw3VtMMgP7b-19" value="cinema id " style="shape=partialRectangle;overflow=hidden;connectable=0;fillColor=none;top=0;left=0;bottom=0;right=0;align=left;spacingLeft=6;strokeColor=#457B9D;fontColor=#1D3557;" parent="C-vyLk0tnHw3VtMMgP7b-17" vertex="1">
          <mxGeometry x="80" width="170" height="30" as="geometry" />
        </mxCell>
        <mxCell id="C-vyLk0tnHw3VtMMgP7b-20" value="" style="shape=partialRectangle;collapsible=0;dropTarget=0;pointerEvents=0;fillColor=none;points=[[0,0.5],[1,0.5]];portConstraint=eastwest;top=0;left=0;right=0;bottom=0;strokeColor=#457B9D;fontColor=#1D3557;" parent="C-vyLk0tnHw3VtMMgP7b-13" vertex="1">
          <mxGeometry y="90" width="250" height="30" as="geometry" />
        </mxCell>
        <mxCell id="C-vyLk0tnHw3VtMMgP7b-21" value="FK2" style="shape=partialRectangle;overflow=hidden;connectable=0;fillColor=none;top=0;left=0;bottom=0;right=0;strokeColor=#457B9D;fontColor=#1D3557;" parent="C-vyLk0tnHw3VtMMgP7b-20" vertex="1">
          <mxGeometry width="80" height="30" as="geometry" />
        </mxCell>
        <mxCell id="C-vyLk0tnHw3VtMMgP7b-22" value="user id " style="shape=partialRectangle;overflow=hidden;connectable=0;fillColor=none;top=0;left=0;bottom=0;right=0;align=left;spacingLeft=6;strokeColor=#457B9D;fontColor=#1D3557;" parent="C-vyLk0tnHw3VtMMgP7b-20" vertex="1">
          <mxGeometry x="80" width="170" height="30" as="geometry" />
        </mxCell>
        <mxCell id="KycW4tC0qBG2q9IRIVnm-60" value="" style="shape=partialRectangle;collapsible=0;dropTarget=0;pointerEvents=0;fillColor=none;points=[[0,0.5],[1,0.5]];portConstraint=eastwest;top=0;left=0;right=0;bottom=0;strokeColor=#457B9D;fontColor=#1D3557;" vertex="1" parent="C-vyLk0tnHw3VtMMgP7b-13">
          <mxGeometry y="120" width="250" height="30" as="geometry" />
        </mxCell>
        <mxCell id="KycW4tC0qBG2q9IRIVnm-61" value="date" style="shape=partialRectangle;overflow=hidden;connectable=0;fillColor=none;top=0;left=0;bottom=0;right=0;strokeColor=#457B9D;fontColor=#1D3557;" vertex="1" parent="KycW4tC0qBG2q9IRIVnm-60">
          <mxGeometry width="80" height="30" as="geometry" />
        </mxCell>
        <mxCell id="KycW4tC0qBG2q9IRIVnm-62" value="string" style="shape=partialRectangle;overflow=hidden;connectable=0;fillColor=none;top=0;left=0;bottom=0;right=0;align=left;spacingLeft=6;strokeColor=#457B9D;fontColor=#1D3557;" vertex="1" parent="KycW4tC0qBG2q9IRIVnm-60">
          <mxGeometry x="80" width="170" height="30" as="geometry" />
        </mxCell>
        <mxCell id="KycW4tC0qBG2q9IRIVnm-95" value="" style="shape=partialRectangle;collapsible=0;dropTarget=0;pointerEvents=0;fillColor=none;points=[[0,0.5],[1,0.5]];portConstraint=eastwest;top=0;left=0;right=0;bottom=0;strokeColor=#457B9D;fontColor=#1D3557;" vertex="1" parent="C-vyLk0tnHw3VtMMgP7b-13">
          <mxGeometry y="150" width="250" height="30" as="geometry" />
        </mxCell>
        <mxCell id="KycW4tC0qBG2q9IRIVnm-96" value="orders" style="shape=partialRectangle;overflow=hidden;connectable=0;fillColor=none;top=0;left=0;bottom=0;right=0;strokeColor=#457B9D;fontColor=#1D3557;" vertex="1" parent="KycW4tC0qBG2q9IRIVnm-95">
          <mxGeometry width="80" height="30" as="geometry" />
        </mxCell>
        <mxCell id="KycW4tC0qBG2q9IRIVnm-97" value="array of orders" style="shape=partialRectangle;overflow=hidden;connectable=0;fillColor=none;top=0;left=0;bottom=0;right=0;align=left;spacingLeft=6;strokeColor=#457B9D;fontColor=#1D3557;" vertex="1" parent="KycW4tC0qBG2q9IRIVnm-95">
          <mxGeometry x="80" width="170" height="30" as="geometry" />
        </mxCell>
        <mxCell id="KycW4tC0qBG2q9IRIVnm-98" value="" style="shape=partialRectangle;collapsible=0;dropTarget=0;pointerEvents=0;fillColor=none;points=[[0,0.5],[1,0.5]];portConstraint=eastwest;top=0;left=0;right=0;bottom=0;strokeColor=#457B9D;fontColor=#1D3557;" vertex="1" parent="C-vyLk0tnHw3VtMMgP7b-13">
          <mxGeometry y="180" width="250" height="30" as="geometry" />
        </mxCell>
        <mxCell id="KycW4tC0qBG2q9IRIVnm-99" value="total" style="shape=partialRectangle;overflow=hidden;connectable=0;fillColor=none;top=0;left=0;bottom=0;right=0;strokeColor=#457B9D;fontColor=#1D3557;" vertex="1" parent="KycW4tC0qBG2q9IRIVnm-98">
          <mxGeometry width="80" height="30" as="geometry" />
        </mxCell>
        <mxCell id="KycW4tC0qBG2q9IRIVnm-100" value="number" style="shape=partialRectangle;overflow=hidden;connectable=0;fillColor=none;top=0;left=0;bottom=0;right=0;align=left;spacingLeft=6;strokeColor=#457B9D;fontColor=#1D3557;" vertex="1" parent="KycW4tC0qBG2q9IRIVnm-98">
          <mxGeometry x="80" width="170" height="30" as="geometry" />
        </mxCell>
        <mxCell id="C-vyLk0tnHw3VtMMgP7b-23" value="User" style="shape=table;startSize=30;container=1;collapsible=1;childLayout=tableLayout;fixedRows=1;rowLines=0;fontStyle=1;align=center;resizeLast=1;fillColor=#A8DADC;strokeColor=#457B9D;fontColor=#1D3557;" parent="1" vertex="1">
          <mxGeometry x="80" y="50" width="250" height="220" as="geometry" />
        </mxCell>
        <mxCell id="C-vyLk0tnHw3VtMMgP7b-24" value="" style="shape=partialRectangle;collapsible=0;dropTarget=0;pointerEvents=0;fillColor=none;points=[[0,0.5],[1,0.5]];portConstraint=eastwest;top=0;left=0;right=0;bottom=1;strokeColor=#457B9D;fontColor=#1D3557;" parent="C-vyLk0tnHw3VtMMgP7b-23" vertex="1">
          <mxGeometry y="30" width="250" height="30" as="geometry" />
        </mxCell>
        <mxCell id="C-vyLk0tnHw3VtMMgP7b-25" value="PK" style="shape=partialRectangle;overflow=hidden;connectable=0;fillColor=none;top=0;left=0;bottom=0;right=0;fontStyle=1;strokeColor=#457B9D;fontColor=#1D3557;" parent="C-vyLk0tnHw3VtMMgP7b-24" vertex="1">
          <mxGeometry width="70" height="30" as="geometry" />
        </mxCell>
        <mxCell id="C-vyLk0tnHw3VtMMgP7b-26" value="id" style="shape=partialRectangle;overflow=hidden;connectable=0;fillColor=none;top=0;left=0;bottom=0;right=0;align=left;spacingLeft=6;fontStyle=5;strokeColor=#457B9D;fontColor=#1D3557;" parent="C-vyLk0tnHw3VtMMgP7b-24" vertex="1">
          <mxGeometry x="70" width="180" height="30" as="geometry" />
        </mxCell>
        <mxCell id="C-vyLk0tnHw3VtMMgP7b-27" value="" style="shape=partialRectangle;collapsible=0;dropTarget=0;pointerEvents=0;fillColor=none;points=[[0,0.5],[1,0.5]];portConstraint=eastwest;top=0;left=0;right=0;bottom=0;strokeColor=#457B9D;fontColor=#1D3557;" parent="C-vyLk0tnHw3VtMMgP7b-23" vertex="1">
          <mxGeometry y="60" width="250" height="30" as="geometry" />
        </mxCell>
        <mxCell id="C-vyLk0tnHw3VtMMgP7b-28" value="name" style="shape=partialRectangle;overflow=hidden;connectable=0;fillColor=none;top=0;left=0;bottom=0;right=0;strokeColor=#457B9D;fontColor=#1D3557;" parent="C-vyLk0tnHw3VtMMgP7b-27" vertex="1">
          <mxGeometry width="70" height="30" as="geometry" />
        </mxCell>
        <mxCell id="C-vyLk0tnHw3VtMMgP7b-29" value="customer_name char(50) NOT NULL" style="shape=partialRectangle;overflow=hidden;connectable=0;fillColor=none;top=0;left=0;bottom=0;right=0;align=left;spacingLeft=6;strokeColor=#457B9D;fontColor=#1D3557;" parent="C-vyLk0tnHw3VtMMgP7b-27" vertex="1">
          <mxGeometry x="70" width="180" height="30" as="geometry" />
        </mxCell>
        <mxCell id="KycW4tC0qBG2q9IRIVnm-5" value="" style="shape=partialRectangle;collapsible=0;dropTarget=0;pointerEvents=0;fillColor=none;points=[[0,0.5],[1,0.5]];portConstraint=eastwest;top=0;left=0;right=0;bottom=0;strokeColor=#457B9D;fontColor=#1D3557;" vertex="1" parent="C-vyLk0tnHw3VtMMgP7b-23">
          <mxGeometry y="90" width="250" height="30" as="geometry" />
        </mxCell>
        <mxCell id="KycW4tC0qBG2q9IRIVnm-6" value="email" style="shape=partialRectangle;overflow=hidden;connectable=0;fillColor=none;top=0;left=0;bottom=0;right=0;strokeColor=#457B9D;fontColor=#1D3557;" vertex="1" parent="KycW4tC0qBG2q9IRIVnm-5">
          <mxGeometry width="70" height="30" as="geometry" />
        </mxCell>
        <mxCell id="KycW4tC0qBG2q9IRIVnm-7" value="string unique" style="shape=partialRectangle;overflow=hidden;connectable=0;fillColor=none;top=0;left=0;bottom=0;right=0;align=left;spacingLeft=6;strokeColor=#457B9D;fontColor=#1D3557;" vertex="1" parent="KycW4tC0qBG2q9IRIVnm-5">
          <mxGeometry x="70" width="180" height="30" as="geometry" />
        </mxCell>
        <mxCell id="KycW4tC0qBG2q9IRIVnm-8" value="" style="shape=partialRectangle;collapsible=0;dropTarget=0;pointerEvents=0;fillColor=none;points=[[0,0.5],[1,0.5]];portConstraint=eastwest;top=0;left=0;right=0;bottom=0;strokeColor=#457B9D;fontColor=#1D3557;" vertex="1" parent="C-vyLk0tnHw3VtMMgP7b-23">
          <mxGeometry y="120" width="250" height="30" as="geometry" />
        </mxCell>
        <mxCell id="KycW4tC0qBG2q9IRIVnm-9" value="guest " style="shape=partialRectangle;overflow=hidden;connectable=0;fillColor=none;top=0;left=0;bottom=0;right=0;strokeColor=#457B9D;fontColor=#1D3557;" vertex="1" parent="KycW4tC0qBG2q9IRIVnm-8">
          <mxGeometry width="70" height="30" as="geometry" />
        </mxCell>
        <mxCell id="KycW4tC0qBG2q9IRIVnm-10" value="boolean" style="shape=partialRectangle;overflow=hidden;connectable=0;fillColor=none;top=0;left=0;bottom=0;right=0;align=left;spacingLeft=6;strokeColor=#457B9D;fontColor=#1D3557;" vertex="1" parent="KycW4tC0qBG2q9IRIVnm-8">
          <mxGeometry x="70" width="180" height="30" as="geometry" />
        </mxCell>
        <mxCell id="KycW4tC0qBG2q9IRIVnm-54" value="" style="shape=partialRectangle;collapsible=0;dropTarget=0;pointerEvents=0;fillColor=none;points=[[0,0.5],[1,0.5]];portConstraint=eastwest;top=0;left=0;right=0;bottom=0;strokeColor=#457B9D;fontColor=#1D3557;" vertex="1" parent="C-vyLk0tnHw3VtMMgP7b-23">
          <mxGeometry y="150" width="250" height="30" as="geometry" />
        </mxCell>
        <mxCell id="KycW4tC0qBG2q9IRIVnm-55" value="admin" style="shape=partialRectangle;overflow=hidden;connectable=0;fillColor=none;top=0;left=0;bottom=0;right=0;strokeColor=#457B9D;fontColor=#1D3557;" vertex="1" parent="KycW4tC0qBG2q9IRIVnm-54">
          <mxGeometry width="70" height="30" as="geometry" />
        </mxCell>
        <mxCell id="KycW4tC0qBG2q9IRIVnm-56" value="boolean" style="shape=partialRectangle;overflow=hidden;connectable=0;fillColor=none;top=0;left=0;bottom=0;right=0;align=left;spacingLeft=6;strokeColor=#457B9D;fontColor=#1D3557;" vertex="1" parent="KycW4tC0qBG2q9IRIVnm-54">
          <mxGeometry x="70" width="180" height="30" as="geometry" />
        </mxCell>
        <mxCell id="KycW4tC0qBG2q9IRIVnm-57" value="" style="shape=partialRectangle;collapsible=0;dropTarget=0;pointerEvents=0;fillColor=none;points=[[0,0.5],[1,0.5]];portConstraint=eastwest;top=0;left=0;right=0;bottom=0;strokeColor=#457B9D;fontColor=#1D3557;" vertex="1" parent="C-vyLk0tnHw3VtMMgP7b-23">
          <mxGeometry y="180" width="250" height="30" as="geometry" />
        </mxCell>
        <mxCell id="KycW4tC0qBG2q9IRIVnm-58" value="password" style="shape=partialRectangle;overflow=hidden;connectable=0;fillColor=none;top=0;left=0;bottom=0;right=0;strokeColor=#457B9D;fontColor=#1D3557;" vertex="1" parent="KycW4tC0qBG2q9IRIVnm-57">
          <mxGeometry width="70" height="30" as="geometry" />
        </mxCell>
        <mxCell id="KycW4tC0qBG2q9IRIVnm-59" value="string" style="shape=partialRectangle;overflow=hidden;connectable=0;fillColor=none;top=0;left=0;bottom=0;right=0;align=left;spacingLeft=6;strokeColor=#457B9D;fontColor=#1D3557;" vertex="1" parent="KycW4tC0qBG2q9IRIVnm-57">
          <mxGeometry x="70" width="180" height="30" as="geometry" />
        </mxCell>
        <mxCell id="KycW4tC0qBG2q9IRIVnm-14" value="Event" style="shape=table;startSize=30;container=1;collapsible=1;childLayout=tableLayout;fixedRows=1;rowLines=0;fontStyle=1;align=center;resizeLast=1;fillColor=#A8DADC;strokeColor=#457B9D;fontColor=#1D3557;" vertex="1" parent="1">
          <mxGeometry x="70" y="630" width="250" height="340" as="geometry" />
        </mxCell>
        <mxCell id="KycW4tC0qBG2q9IRIVnm-15" value="" style="shape=partialRectangle;collapsible=0;dropTarget=0;pointerEvents=0;fillColor=none;points=[[0,0.5],[1,0.5]];portConstraint=eastwest;top=0;left=0;right=0;bottom=1;strokeColor=#457B9D;fontColor=#1D3557;" vertex="1" parent="KycW4tC0qBG2q9IRIVnm-14">
          <mxGeometry y="30" width="250" height="30" as="geometry" />
        </mxCell>
        <mxCell id="KycW4tC0qBG2q9IRIVnm-16" value="PK" style="shape=partialRectangle;overflow=hidden;connectable=0;fillColor=none;top=0;left=0;bottom=0;right=0;fontStyle=1;strokeColor=#457B9D;fontColor=#1D3557;" vertex="1" parent="KycW4tC0qBG2q9IRIVnm-15">
          <mxGeometry width="70" height="30" as="geometry" />
        </mxCell>
        <mxCell id="KycW4tC0qBG2q9IRIVnm-17" value="id" style="shape=partialRectangle;overflow=hidden;connectable=0;fillColor=none;top=0;left=0;bottom=0;right=0;align=left;spacingLeft=6;fontStyle=5;strokeColor=#457B9D;fontColor=#1D3557;" vertex="1" parent="KycW4tC0qBG2q9IRIVnm-15">
          <mxGeometry x="70" width="180" height="30" as="geometry" />
        </mxCell>
        <mxCell id="KycW4tC0qBG2q9IRIVnm-18" value="" style="shape=partialRectangle;collapsible=0;dropTarget=0;pointerEvents=0;fillColor=none;points=[[0,0.5],[1,0.5]];portConstraint=eastwest;top=0;left=0;right=0;bottom=0;strokeColor=#457B9D;fontColor=#1D3557;" vertex="1" parent="KycW4tC0qBG2q9IRIVnm-14">
          <mxGeometry y="60" width="250" height="30" as="geometry" />
        </mxCell>
        <mxCell id="KycW4tC0qBG2q9IRIVnm-19" value="date" style="shape=partialRectangle;overflow=hidden;connectable=0;fillColor=none;top=0;left=0;bottom=0;right=0;strokeColor=#457B9D;fontColor=#1D3557;" vertex="1" parent="KycW4tC0qBG2q9IRIVnm-18">
          <mxGeometry width="70" height="30" as="geometry" />
        </mxCell>
        <mxCell id="KycW4tC0qBG2q9IRIVnm-20" value="string" style="shape=partialRectangle;overflow=hidden;connectable=0;fillColor=none;top=0;left=0;bottom=0;right=0;align=left;spacingLeft=6;strokeColor=#457B9D;fontColor=#1D3557;" vertex="1" parent="KycW4tC0qBG2q9IRIVnm-18">
          <mxGeometry x="70" width="180" height="30" as="geometry" />
        </mxCell>
        <mxCell id="KycW4tC0qBG2q9IRIVnm-21" value="" style="shape=partialRectangle;collapsible=0;dropTarget=0;pointerEvents=0;fillColor=none;points=[[0,0.5],[1,0.5]];portConstraint=eastwest;top=0;left=0;right=0;bottom=0;strokeColor=#457B9D;fontColor=#1D3557;" vertex="1" parent="KycW4tC0qBG2q9IRIVnm-14">
          <mxGeometry y="90" width="250" height="30" as="geometry" />
        </mxCell>
        <mxCell id="KycW4tC0qBG2q9IRIVnm-22" value="movies" style="shape=partialRectangle;overflow=hidden;connectable=0;fillColor=none;top=0;left=0;bottom=0;right=0;strokeColor=#457B9D;fontColor=#1D3557;" vertex="1" parent="KycW4tC0qBG2q9IRIVnm-21">
          <mxGeometry width="70" height="30" as="geometry" />
        </mxCell>
        <mxCell id="KycW4tC0qBG2q9IRIVnm-23" value="array of movies" style="shape=partialRectangle;overflow=hidden;connectable=0;fillColor=none;top=0;left=0;bottom=0;right=0;align=left;spacingLeft=6;strokeColor=#457B9D;fontColor=#1D3557;" vertex="1" parent="KycW4tC0qBG2q9IRIVnm-21">
          <mxGeometry x="70" width="180" height="30" as="geometry" />
        </mxCell>
        <mxCell id="KycW4tC0qBG2q9IRIVnm-24" value="" style="shape=partialRectangle;collapsible=0;dropTarget=0;pointerEvents=0;fillColor=none;points=[[0,0.5],[1,0.5]];portConstraint=eastwest;top=0;left=0;right=0;bottom=0;strokeColor=#457B9D;fontColor=#1D3557;" vertex="1" parent="KycW4tC0qBG2q9IRIVnm-14">
          <mxGeometry y="120" width="250" height="30" as="geometry" />
        </mxCell>
        <mxCell id="KycW4tC0qBG2q9IRIVnm-25" value="2D price" style="shape=partialRectangle;overflow=hidden;connectable=0;fillColor=none;top=0;left=0;bottom=0;right=0;strokeColor=#457B9D;fontColor=#1D3557;" vertex="1" parent="KycW4tC0qBG2q9IRIVnm-24">
          <mxGeometry width="70" height="30" as="geometry" />
        </mxCell>
        <mxCell id="KycW4tC0qBG2q9IRIVnm-26" value="8" style="shape=partialRectangle;overflow=hidden;connectable=0;fillColor=none;top=0;left=0;bottom=0;right=0;align=left;spacingLeft=6;strokeColor=#457B9D;fontColor=#1D3557;" vertex="1" parent="KycW4tC0qBG2q9IRIVnm-24">
          <mxGeometry x="70" width="180" height="30" as="geometry" />
        </mxCell>
        <mxCell id="KycW4tC0qBG2q9IRIVnm-42" value="" style="shape=partialRectangle;collapsible=0;dropTarget=0;pointerEvents=0;fillColor=none;points=[[0,0.5],[1,0.5]];portConstraint=eastwest;top=0;left=0;right=0;bottom=0;strokeColor=#457B9D;fontColor=#1D3557;" vertex="1" parent="KycW4tC0qBG2q9IRIVnm-14">
          <mxGeometry y="150" width="250" height="30" as="geometry" />
        </mxCell>
        <mxCell id="KycW4tC0qBG2q9IRIVnm-43" value="3D price" style="shape=partialRectangle;overflow=hidden;connectable=0;fillColor=none;top=0;left=0;bottom=0;right=0;strokeColor=#457B9D;fontColor=#1D3557;" vertex="1" parent="KycW4tC0qBG2q9IRIVnm-42">
          <mxGeometry width="70" height="30" as="geometry" />
        </mxCell>
        <mxCell id="KycW4tC0qBG2q9IRIVnm-44" value="10" style="shape=partialRectangle;overflow=hidden;connectable=0;fillColor=none;top=0;left=0;bottom=0;right=0;align=left;spacingLeft=6;strokeColor=#457B9D;fontColor=#1D3557;" vertex="1" parent="KycW4tC0qBG2q9IRIVnm-42">
          <mxGeometry x="70" width="180" height="30" as="geometry" />
        </mxCell>
        <mxCell id="KycW4tC0qBG2q9IRIVnm-45" value="" style="shape=partialRectangle;collapsible=0;dropTarget=0;pointerEvents=0;fillColor=none;points=[[0,0.5],[1,0.5]];portConstraint=eastwest;top=0;left=0;right=0;bottom=0;strokeColor=#457B9D;fontColor=#1D3557;" vertex="1" parent="KycW4tC0qBG2q9IRIVnm-14">
          <mxGeometry y="180" width="250" height="30" as="geometry" />
        </mxCell>
        <mxCell id="KycW4tC0qBG2q9IRIVnm-46" value="4D price" style="shape=partialRectangle;overflow=hidden;connectable=0;fillColor=none;top=0;left=0;bottom=0;right=0;strokeColor=#457B9D;fontColor=#1D3557;" vertex="1" parent="KycW4tC0qBG2q9IRIVnm-45">
          <mxGeometry width="70" height="30" as="geometry" />
        </mxCell>
        <mxCell id="KycW4tC0qBG2q9IRIVnm-47" value="13" style="shape=partialRectangle;overflow=hidden;connectable=0;fillColor=none;top=0;left=0;bottom=0;right=0;align=left;spacingLeft=6;strokeColor=#457B9D;fontColor=#1D3557;" vertex="1" parent="KycW4tC0qBG2q9IRIVnm-45">
          <mxGeometry x="70" width="180" height="30" as="geometry" />
        </mxCell>
        <mxCell id="KycW4tC0qBG2q9IRIVnm-48" value="" style="shape=partialRectangle;collapsible=0;dropTarget=0;pointerEvents=0;fillColor=none;points=[[0,0.5],[1,0.5]];portConstraint=eastwest;top=0;left=0;right=0;bottom=0;strokeColor=#457B9D;fontColor=#1D3557;" vertex="1" parent="KycW4tC0qBG2q9IRIVnm-14">
          <mxGeometry y="210" width="250" height="30" as="geometry" />
        </mxCell>
        <mxCell id="KycW4tC0qBG2q9IRIVnm-49" value="discount" style="shape=partialRectangle;overflow=hidden;connectable=0;fillColor=none;top=0;left=0;bottom=0;right=0;strokeColor=#457B9D;fontColor=#1D3557;" vertex="1" parent="KycW4tC0qBG2q9IRIVnm-48">
          <mxGeometry width="70" height="30" as="geometry" />
        </mxCell>
        <mxCell id="KycW4tC0qBG2q9IRIVnm-50" value="10%" style="shape=partialRectangle;overflow=hidden;connectable=0;fillColor=none;top=0;left=0;bottom=0;right=0;align=left;spacingLeft=6;strokeColor=#457B9D;fontColor=#1D3557;" vertex="1" parent="KycW4tC0qBG2q9IRIVnm-48">
          <mxGeometry x="70" width="180" height="30" as="geometry" />
        </mxCell>
        <mxCell id="KycW4tC0qBG2q9IRIVnm-51" value="" style="shape=partialRectangle;collapsible=0;dropTarget=0;pointerEvents=0;fillColor=none;points=[[0,0.5],[1,0.5]];portConstraint=eastwest;top=0;left=0;right=0;bottom=0;strokeColor=#457B9D;fontColor=#1D3557;" vertex="1" parent="KycW4tC0qBG2q9IRIVnm-14">
          <mxGeometry y="240" width="250" height="30" as="geometry" />
        </mxCell>
        <mxCell id="KycW4tC0qBG2q9IRIVnm-52" value="condition" style="shape=partialRectangle;overflow=hidden;connectable=0;fillColor=none;top=0;left=0;bottom=0;right=0;strokeColor=#457B9D;fontColor=#1D3557;" vertex="1" parent="KycW4tC0qBG2q9IRIVnm-51">
          <mxGeometry width="70" height="30" as="geometry" />
        </mxCell>
        <mxCell id="KycW4tC0qBG2q9IRIVnm-53" value="number 4" style="shape=partialRectangle;overflow=hidden;connectable=0;fillColor=none;top=0;left=0;bottom=0;right=0;align=left;spacingLeft=6;strokeColor=#457B9D;fontColor=#1D3557;" vertex="1" parent="KycW4tC0qBG2q9IRIVnm-51">
          <mxGeometry x="70" width="180" height="30" as="geometry" />
        </mxCell>
        <mxCell id="KycW4tC0qBG2q9IRIVnm-63" value="" style="shape=partialRectangle;collapsible=0;dropTarget=0;pointerEvents=0;fillColor=none;points=[[0,0.5],[1,0.5]];portConstraint=eastwest;top=0;left=0;right=0;bottom=0;strokeColor=#457B9D;fontColor=#1D3557;" vertex="1" parent="KycW4tC0qBG2q9IRIVnm-14">
          <mxGeometry y="270" width="250" height="30" as="geometry" />
        </mxCell>
        <mxCell id="KycW4tC0qBG2q9IRIVnm-64" value="time" style="shape=partialRectangle;overflow=hidden;connectable=0;fillColor=none;top=0;left=0;bottom=0;right=0;strokeColor=#457B9D;fontColor=#1D3557;" vertex="1" parent="KycW4tC0qBG2q9IRIVnm-63">
          <mxGeometry width="70" height="30" as="geometry" />
        </mxCell>
        <mxCell id="KycW4tC0qBG2q9IRIVnm-65" value="string" style="shape=partialRectangle;overflow=hidden;connectable=0;fillColor=none;top=0;left=0;bottom=0;right=0;align=left;spacingLeft=6;strokeColor=#457B9D;fontColor=#1D3557;" vertex="1" parent="KycW4tC0qBG2q9IRIVnm-63">
          <mxGeometry x="70" width="180" height="30" as="geometry" />
        </mxCell>
        <mxCell id="KycW4tC0qBG2q9IRIVnm-107" value="" style="shape=partialRectangle;collapsible=0;dropTarget=0;pointerEvents=0;fillColor=none;points=[[0,0.5],[1,0.5]];portConstraint=eastwest;top=0;left=0;right=0;bottom=0;strokeColor=#457B9D;fontColor=#1D3557;" vertex="1" parent="KycW4tC0qBG2q9IRIVnm-14">
          <mxGeometry y="300" width="250" height="30" as="geometry" />
        </mxCell>
        <mxCell id="KycW4tC0qBG2q9IRIVnm-108" value="FK" style="shape=partialRectangle;overflow=hidden;connectable=0;fillColor=none;top=0;left=0;bottom=0;right=0;strokeColor=#457B9D;fontColor=#1D3557;" vertex="1" parent="KycW4tC0qBG2q9IRIVnm-107">
          <mxGeometry width="70" height="30" as="geometry" />
        </mxCell>
        <mxCell id="KycW4tC0qBG2q9IRIVnm-109" value="cinema Id" style="shape=partialRectangle;overflow=hidden;connectable=0;fillColor=none;top=0;left=0;bottom=0;right=0;align=left;spacingLeft=6;strokeColor=#457B9D;fontColor=#1D3557;" vertex="1" parent="KycW4tC0qBG2q9IRIVnm-107">
          <mxGeometry x="70" width="180" height="30" as="geometry" />
        </mxCell>
        <mxCell id="KycW4tC0qBG2q9IRIVnm-66" value="Cinema" style="shape=table;startSize=30;container=1;collapsible=1;childLayout=tableLayout;fixedRows=1;rowLines=0;fontStyle=1;align=center;resizeLast=1;fillColor=#A8DADC;strokeColor=#457B9D;fontColor=#1D3557;" vertex="1" parent="1">
          <mxGeometry x="70" y="300" width="250" height="250" as="geometry" />
        </mxCell>
        <mxCell id="KycW4tC0qBG2q9IRIVnm-67" value="" style="shape=partialRectangle;collapsible=0;dropTarget=0;pointerEvents=0;fillColor=none;points=[[0,0.5],[1,0.5]];portConstraint=eastwest;top=0;left=0;right=0;bottom=1;strokeColor=#457B9D;fontColor=#1D3557;" vertex="1" parent="KycW4tC0qBG2q9IRIVnm-66">
          <mxGeometry y="30" width="250" height="30" as="geometry" />
        </mxCell>
        <mxCell id="KycW4tC0qBG2q9IRIVnm-68" value="PK" style="shape=partialRectangle;overflow=hidden;connectable=0;fillColor=none;top=0;left=0;bottom=0;right=0;fontStyle=1;strokeColor=#457B9D;fontColor=#1D3557;" vertex="1" parent="KycW4tC0qBG2q9IRIVnm-67">
          <mxGeometry width="80" height="30" as="geometry" />
        </mxCell>
        <mxCell id="KycW4tC0qBG2q9IRIVnm-69" value="id" style="shape=partialRectangle;overflow=hidden;connectable=0;fillColor=none;top=0;left=0;bottom=0;right=0;align=left;spacingLeft=6;fontStyle=5;strokeColor=#457B9D;fontColor=#1D3557;" vertex="1" parent="KycW4tC0qBG2q9IRIVnm-67">
          <mxGeometry x="80" width="170" height="30" as="geometry" />
        </mxCell>
        <mxCell id="KycW4tC0qBG2q9IRIVnm-70" value="" style="shape=partialRectangle;collapsible=0;dropTarget=0;pointerEvents=0;fillColor=none;points=[[0,0.5],[1,0.5]];portConstraint=eastwest;top=0;left=0;right=0;bottom=0;strokeColor=#457B9D;fontColor=#1D3557;" vertex="1" parent="KycW4tC0qBG2q9IRIVnm-66">
          <mxGeometry y="60" width="250" height="30" as="geometry" />
        </mxCell>
        <mxCell id="KycW4tC0qBG2q9IRIVnm-71" value="Location" style="shape=partialRectangle;overflow=hidden;connectable=0;fillColor=none;top=0;left=0;bottom=0;right=0;strokeColor=#457B9D;fontColor=#1D3557;" vertex="1" parent="KycW4tC0qBG2q9IRIVnm-70">
          <mxGeometry width="80" height="30" as="geometry" />
        </mxCell>
        <mxCell id="KycW4tC0qBG2q9IRIVnm-72" value="string" style="shape=partialRectangle;overflow=hidden;connectable=0;fillColor=none;top=0;left=0;bottom=0;right=0;align=left;spacingLeft=6;strokeColor=#457B9D;fontColor=#1D3557;" vertex="1" parent="KycW4tC0qBG2q9IRIVnm-70">
          <mxGeometry x="80" width="170" height="30" as="geometry" />
        </mxCell>
        <mxCell id="KycW4tC0qBG2q9IRIVnm-73" value="" style="shape=partialRectangle;collapsible=0;dropTarget=0;pointerEvents=0;fillColor=none;points=[[0,0.5],[1,0.5]];portConstraint=eastwest;top=0;left=0;right=0;bottom=0;strokeColor=#457B9D;fontColor=#1D3557;" vertex="1" parent="KycW4tC0qBG2q9IRIVnm-66">
          <mxGeometry y="90" width="250" height="30" as="geometry" />
        </mxCell>
        <mxCell id="KycW4tC0qBG2q9IRIVnm-74" value="capacity " style="shape=partialRectangle;overflow=hidden;connectable=0;fillColor=none;top=0;left=0;bottom=0;right=0;strokeColor=#457B9D;fontColor=#1D3557;" vertex="1" parent="KycW4tC0qBG2q9IRIVnm-73">
          <mxGeometry width="80" height="30" as="geometry" />
        </mxCell>
        <mxCell id="KycW4tC0qBG2q9IRIVnm-75" value="number" style="shape=partialRectangle;overflow=hidden;connectable=0;fillColor=none;top=0;left=0;bottom=0;right=0;align=left;spacingLeft=6;strokeColor=#457B9D;fontColor=#1D3557;" vertex="1" parent="KycW4tC0qBG2q9IRIVnm-73">
          <mxGeometry x="80" width="170" height="30" as="geometry" />
        </mxCell>
        <mxCell id="KycW4tC0qBG2q9IRIVnm-76" value="" style="shape=partialRectangle;collapsible=0;dropTarget=0;pointerEvents=0;fillColor=none;points=[[0,0.5],[1,0.5]];portConstraint=eastwest;top=0;left=0;right=0;bottom=0;strokeColor=#457B9D;fontColor=#1D3557;" vertex="1" parent="KycW4tC0qBG2q9IRIVnm-66">
          <mxGeometry y="120" width="250" height="30" as="geometry" />
        </mxCell>
        <mxCell id="KycW4tC0qBG2q9IRIVnm-77" value="room" style="shape=partialRectangle;overflow=hidden;connectable=0;fillColor=none;top=0;left=0;bottom=0;right=0;strokeColor=#457B9D;fontColor=#1D3557;" vertex="1" parent="KycW4tC0qBG2q9IRIVnm-76">
          <mxGeometry width="80" height="30" as="geometry" />
        </mxCell>
        <mxCell id="KycW4tC0qBG2q9IRIVnm-78" value="number" style="shape=partialRectangle;overflow=hidden;connectable=0;fillColor=none;top=0;left=0;bottom=0;right=0;align=left;spacingLeft=6;strokeColor=#457B9D;fontColor=#1D3557;" vertex="1" parent="KycW4tC0qBG2q9IRIVnm-76">
          <mxGeometry x="80" width="170" height="30" as="geometry" />
        </mxCell>
        <mxCell id="KycW4tC0qBG2q9IRIVnm-79" value="" style="shape=partialRectangle;collapsible=0;dropTarget=0;pointerEvents=0;fillColor=none;points=[[0,0.5],[1,0.5]];portConstraint=eastwest;top=0;left=0;right=0;bottom=0;strokeColor=#457B9D;fontColor=#1D3557;" vertex="1" parent="KycW4tC0qBG2q9IRIVnm-66">
          <mxGeometry y="150" width="250" height="30" as="geometry" />
        </mxCell>
        <mxCell id="KycW4tC0qBG2q9IRIVnm-80" value="staff" style="shape=partialRectangle;overflow=hidden;connectable=0;fillColor=none;top=0;left=0;bottom=0;right=0;strokeColor=#457B9D;fontColor=#1D3557;" vertex="1" parent="KycW4tC0qBG2q9IRIVnm-79">
          <mxGeometry width="80" height="30" as="geometry" />
        </mxCell>
        <mxCell id="KycW4tC0qBG2q9IRIVnm-81" value="users" style="shape=partialRectangle;overflow=hidden;connectable=0;fillColor=none;top=0;left=0;bottom=0;right=0;align=left;spacingLeft=6;strokeColor=#457B9D;fontColor=#1D3557;" vertex="1" parent="KycW4tC0qBG2q9IRIVnm-79">
          <mxGeometry x="80" width="170" height="30" as="geometry" />
        </mxCell>
        <mxCell id="KycW4tC0qBG2q9IRIVnm-112" value="" style="shape=partialRectangle;collapsible=0;dropTarget=0;pointerEvents=0;fillColor=none;points=[[0,0.5],[1,0.5]];portConstraint=eastwest;top=0;left=0;right=0;bottom=0;strokeColor=#457B9D;fontColor=#1D3557;" vertex="1" parent="KycW4tC0qBG2q9IRIVnm-66">
          <mxGeometry y="180" width="250" height="30" as="geometry" />
        </mxCell>
        <mxCell id="KycW4tC0qBG2q9IRIVnm-113" value="revenue" style="shape=partialRectangle;overflow=hidden;connectable=0;fillColor=none;top=0;left=0;bottom=0;right=0;strokeColor=#457B9D;fontColor=#1D3557;" vertex="1" parent="KycW4tC0qBG2q9IRIVnm-112">
          <mxGeometry width="80" height="30" as="geometry" />
        </mxCell>
        <mxCell id="KycW4tC0qBG2q9IRIVnm-114" value="number" style="shape=partialRectangle;overflow=hidden;connectable=0;fillColor=none;top=0;left=0;bottom=0;right=0;align=left;spacingLeft=6;strokeColor=#457B9D;fontColor=#1D3557;" vertex="1" parent="KycW4tC0qBG2q9IRIVnm-112">
          <mxGeometry x="80" width="170" height="30" as="geometry" />
        </mxCell>
        <mxCell id="KycW4tC0qBG2q9IRIVnm-115" value="" style="shape=partialRectangle;collapsible=0;dropTarget=0;pointerEvents=0;fillColor=none;points=[[0,0.5],[1,0.5]];portConstraint=eastwest;top=0;left=0;right=0;bottom=0;strokeColor=#457B9D;fontColor=#1D3557;" vertex="1" parent="KycW4tC0qBG2q9IRIVnm-66">
          <mxGeometry y="210" width="250" height="30" as="geometry" />
        </mxCell>
        <mxCell id="KycW4tC0qBG2q9IRIVnm-116" value="transactions" style="shape=partialRectangle;overflow=hidden;connectable=0;fillColor=none;top=0;left=0;bottom=0;right=0;strokeColor=#457B9D;fontColor=#1D3557;" vertex="1" parent="KycW4tC0qBG2q9IRIVnm-115">
          <mxGeometry width="80" height="30" as="geometry" />
        </mxCell>
        <mxCell id="KycW4tC0qBG2q9IRIVnm-117" value="array of transactions" style="shape=partialRectangle;overflow=hidden;connectable=0;fillColor=none;top=0;left=0;bottom=0;right=0;align=left;spacingLeft=6;strokeColor=#457B9D;fontColor=#1D3557;" vertex="1" parent="KycW4tC0qBG2q9IRIVnm-115">
          <mxGeometry x="80" width="170" height="30" as="geometry" />
        </mxCell>
        <mxCell id="KycW4tC0qBG2q9IRIVnm-82" value="order" style="shape=table;startSize=30;container=1;collapsible=1;childLayout=tableLayout;fixedRows=1;rowLines=0;fontStyle=1;align=center;resizeLast=1;fillColor=#A8DADC;strokeColor=#457B9D;fontColor=#1D3557;" vertex="1" parent="1">
          <mxGeometry x="530" y="400" width="250" height="190" as="geometry" />
        </mxCell>
        <mxCell id="KycW4tC0qBG2q9IRIVnm-83" value="" style="shape=partialRectangle;collapsible=0;dropTarget=0;pointerEvents=0;fillColor=none;points=[[0,0.5],[1,0.5]];portConstraint=eastwest;top=0;left=0;right=0;bottom=1;strokeColor=#457B9D;fontColor=#1D3557;" vertex="1" parent="KycW4tC0qBG2q9IRIVnm-82">
          <mxGeometry y="30" width="250" height="30" as="geometry" />
        </mxCell>
        <mxCell id="KycW4tC0qBG2q9IRIVnm-84" value="PK" style="shape=partialRectangle;overflow=hidden;connectable=0;fillColor=none;top=0;left=0;bottom=0;right=0;fontStyle=1;strokeColor=#457B9D;fontColor=#1D3557;" vertex="1" parent="KycW4tC0qBG2q9IRIVnm-83">
          <mxGeometry width="80" height="30" as="geometry" />
        </mxCell>
        <mxCell id="KycW4tC0qBG2q9IRIVnm-85" value="id" style="shape=partialRectangle;overflow=hidden;connectable=0;fillColor=none;top=0;left=0;bottom=0;right=0;align=left;spacingLeft=6;fontStyle=5;strokeColor=#457B9D;fontColor=#1D3557;" vertex="1" parent="KycW4tC0qBG2q9IRIVnm-83">
          <mxGeometry x="80" width="170" height="30" as="geometry" />
        </mxCell>
        <mxCell id="KycW4tC0qBG2q9IRIVnm-86" value="" style="shape=partialRectangle;collapsible=0;dropTarget=0;pointerEvents=0;fillColor=none;points=[[0,0.5],[1,0.5]];portConstraint=eastwest;top=0;left=0;right=0;bottom=0;strokeColor=#457B9D;fontColor=#1D3557;" vertex="1" parent="KycW4tC0qBG2q9IRIVnm-82">
          <mxGeometry y="60" width="250" height="30" as="geometry" />
        </mxCell>
        <mxCell id="KycW4tC0qBG2q9IRIVnm-87" value="FK1" style="shape=partialRectangle;overflow=hidden;connectable=0;fillColor=none;top=0;left=0;bottom=0;right=0;strokeColor=#457B9D;fontColor=#1D3557;" vertex="1" parent="KycW4tC0qBG2q9IRIVnm-86">
          <mxGeometry width="80" height="30" as="geometry" />
        </mxCell>
        <mxCell id="KycW4tC0qBG2q9IRIVnm-88" value="movie id" style="shape=partialRectangle;overflow=hidden;connectable=0;fillColor=none;top=0;left=0;bottom=0;right=0;align=left;spacingLeft=6;strokeColor=#457B9D;fontColor=#1D3557;" vertex="1" parent="KycW4tC0qBG2q9IRIVnm-86">
          <mxGeometry x="80" width="170" height="30" as="geometry" />
        </mxCell>
        <mxCell id="KycW4tC0qBG2q9IRIVnm-89" value="" style="shape=partialRectangle;collapsible=0;dropTarget=0;pointerEvents=0;fillColor=none;points=[[0,0.5],[1,0.5]];portConstraint=eastwest;top=0;left=0;right=0;bottom=0;strokeColor=#457B9D;fontColor=#1D3557;" vertex="1" parent="KycW4tC0qBG2q9IRIVnm-82">
          <mxGeometry y="90" width="250" height="30" as="geometry" />
        </mxCell>
        <mxCell id="KycW4tC0qBG2q9IRIVnm-90" value="FK2" style="shape=partialRectangle;overflow=hidden;connectable=0;fillColor=none;top=0;left=0;bottom=0;right=0;strokeColor=#457B9D;fontColor=#1D3557;" vertex="1" parent="KycW4tC0qBG2q9IRIVnm-89">
          <mxGeometry width="80" height="30" as="geometry" />
        </mxCell>
        <mxCell id="KycW4tC0qBG2q9IRIVnm-91" value="user id " style="shape=partialRectangle;overflow=hidden;connectable=0;fillColor=none;top=0;left=0;bottom=0;right=0;align=left;spacingLeft=6;strokeColor=#457B9D;fontColor=#1D3557;" vertex="1" parent="KycW4tC0qBG2q9IRIVnm-89">
          <mxGeometry x="80" width="170" height="30" as="geometry" />
        </mxCell>
        <mxCell id="KycW4tC0qBG2q9IRIVnm-92" value="" style="shape=partialRectangle;collapsible=0;dropTarget=0;pointerEvents=0;fillColor=none;points=[[0,0.5],[1,0.5]];portConstraint=eastwest;top=0;left=0;right=0;bottom=0;strokeColor=#457B9D;fontColor=#1D3557;" vertex="1" parent="KycW4tC0qBG2q9IRIVnm-82">
          <mxGeometry y="120" width="250" height="30" as="geometry" />
        </mxCell>
        <mxCell id="KycW4tC0qBG2q9IRIVnm-93" value="quantity" style="shape=partialRectangle;overflow=hidden;connectable=0;fillColor=none;top=0;left=0;bottom=0;right=0;strokeColor=#457B9D;fontColor=#1D3557;" vertex="1" parent="KycW4tC0qBG2q9IRIVnm-92">
          <mxGeometry width="80" height="30" as="geometry" />
        </mxCell>
        <mxCell id="KycW4tC0qBG2q9IRIVnm-94" value="number" style="shape=partialRectangle;overflow=hidden;connectable=0;fillColor=none;top=0;left=0;bottom=0;right=0;align=left;spacingLeft=6;strokeColor=#457B9D;fontColor=#1D3557;" vertex="1" parent="KycW4tC0qBG2q9IRIVnm-92">
          <mxGeometry x="80" width="170" height="30" as="geometry" />
        </mxCell>
        <mxCell id="KycW4tC0qBG2q9IRIVnm-104" value="" style="shape=partialRectangle;collapsible=0;dropTarget=0;pointerEvents=0;fillColor=none;points=[[0,0.5],[1,0.5]];portConstraint=eastwest;top=0;left=0;right=0;bottom=0;strokeColor=#457B9D;fontColor=#1D3557;" vertex="1" parent="KycW4tC0qBG2q9IRIVnm-82">
          <mxGeometry y="150" width="250" height="30" as="geometry" />
        </mxCell>
        <mxCell id="KycW4tC0qBG2q9IRIVnm-105" value="FK3" style="shape=partialRectangle;overflow=hidden;connectable=0;fillColor=none;top=0;left=0;bottom=0;right=0;strokeColor=#457B9D;fontColor=#1D3557;" vertex="1" parent="KycW4tC0qBG2q9IRIVnm-104">
          <mxGeometry width="80" height="30" as="geometry" />
        </mxCell>
        <mxCell id="KycW4tC0qBG2q9IRIVnm-106" value="transaction id " style="shape=partialRectangle;overflow=hidden;connectable=0;fillColor=none;top=0;left=0;bottom=0;right=0;align=left;spacingLeft=6;strokeColor=#457B9D;fontColor=#1D3557;" vertex="1" parent="KycW4tC0qBG2q9IRIVnm-104">
          <mxGeometry x="80" width="170" height="30" as="geometry" />
        </mxCell>
        <mxCell id="KycW4tC0qBG2q9IRIVnm-111" value="" style="edgeStyle=entityRelationEdgeStyle;fontSize=12;html=1;endArrow=ERzeroToMany;startArrow=ERmandOne;exitX=0.08;exitY=-0.016;exitDx=0;exitDy=0;exitPerimeter=0;strokeColor=#457B9D;fontColor=#1D3557;labelBackgroundColor=#F1FAEE;" edge="1" parent="1" source="KycW4tC0qBG2q9IRIVnm-66">
          <mxGeometry width="100" height="100" relative="1" as="geometry">
            <mxPoint x="-20" y="260" as="sourcePoint" />
            <mxPoint x="80" y="160" as="targetPoint" />
          </mxGeometry>
        </mxCell>
        <mxCell id="KycW4tC0qBG2q9IRIVnm-118" value="" style="edgeStyle=entityRelationEdgeStyle;fontSize=12;html=1;endArrow=ERmandOne;startArrow=ERmandOne;fontColor=#1D3557;strokeColor=#457B9D;fillColor=#A8DADC;entryX=0.824;entryY=-0.026;entryDx=0;entryDy=0;entryPerimeter=0;exitX=0;exitY=0.5;exitDx=0;exitDy=0;" edge="1" parent="1" source="KycW4tC0qBG2q9IRIVnm-27" target="KycW4tC0qBG2q9IRIVnm-82">
          <mxGeometry width="100" height="100" relative="1" as="geometry">
            <mxPoint x="410" y="370" as="sourcePoint" />
            <mxPoint x="510" y="270" as="targetPoint" />
          </mxGeometry>
        </mxCell>
        <mxCell id="KycW4tC0qBG2q9IRIVnm-119" value="" style="edgeStyle=entityRelationEdgeStyle;fontSize=12;html=1;endArrow=ERoneToMany;startArrow=ERzeroToOne;fontColor=#1D3557;strokeColor=#457B9D;fillColor=#A8DADC;" edge="1" parent="1">
          <mxGeometry width="100" height="100" relative="1" as="geometry">
            <mxPoint x="610" y="260" as="sourcePoint" />
            <mxPoint x="520" y="420" as="targetPoint" />
          </mxGeometry>
        </mxCell>
        <mxCell id="KycW4tC0qBG2q9IRIVnm-120" value="" style="edgeStyle=entityRelationEdgeStyle;fontSize=12;html=1;endArrow=ERoneToMany;startArrow=ERmandOne;fontColor=#1D3557;strokeColor=#457B9D;fillColor=#A8DADC;exitX=1.016;exitY=-0.067;exitDx=0;exitDy=0;exitPerimeter=0;entryX=-0.016;entryY=0.067;entryDx=0;entryDy=0;entryPerimeter=0;" edge="1" parent="1" source="KycW4tC0qBG2q9IRIVnm-76" target="KycW4tC0qBG2q9IRIVnm-95">
          <mxGeometry width="100" height="100" relative="1" as="geometry">
            <mxPoint x="400" y="420" as="sourcePoint" />
            <mxPoint x="500" y="320" as="targetPoint" />
          </mxGeometry>
        </mxCell>
        <mxCell id="KycW4tC0qBG2q9IRIVnm-121" value="" style="edgeStyle=entityRelationEdgeStyle;fontSize=12;html=1;endArrow=ERoneToMany;startArrow=ERzeroToOne;fontColor=#1D3557;strokeColor=#457B9D;fillColor=#A8DADC;entryX=0.688;entryY=-0.012;entryDx=0;entryDy=0;entryPerimeter=0;" edge="1" parent="1" target="KycW4tC0qBG2q9IRIVnm-14">
          <mxGeometry width="100" height="100" relative="1" as="geometry">
            <mxPoint x="250" y="550" as="sourcePoint" />
            <mxPoint x="500" y="520" as="targetPoint" />
          </mxGeometry>
        </mxCell>
        <mxCell id="KycW4tC0qBG2q9IRIVnm-122" value="" style="edgeStyle=entityRelationEdgeStyle;fontSize=12;html=1;endArrow=ERoneToMany;startArrow=ERoneToMany;fontColor=#1D3557;strokeColor=#457B9D;fillColor=#A8DADC;exitX=1.008;exitY=0.2;exitDx=0;exitDy=0;exitPerimeter=0;" edge="1" parent="1" source="KycW4tC0qBG2q9IRIVnm-63" target="KycW4tC0qBG2q9IRIVnm-123">
          <mxGeometry width="100" height="100" relative="1" as="geometry">
            <mxPoint x="400" y="620" as="sourcePoint" />
            <mxPoint x="910" y="620" as="targetPoint" />
          </mxGeometry>
        </mxCell>
        <mxCell id="KycW4tC0qBG2q9IRIVnm-123" value="Agenda" style="shape=table;startSize=30;container=1;collapsible=1;childLayout=tableLayout;fixedRows=1;rowLines=0;fontStyle=1;align=center;resizeLast=1;rounded=0;sketch=0;fontColor=#1D3557;strokeColor=#457B9D;fillColor=#A8DADC;" vertex="1" parent="1">
          <mxGeometry x="500" y="670" width="250" height="160" as="geometry" />
        </mxCell>
        <mxCell id="KycW4tC0qBG2q9IRIVnm-124" value="" style="shape=partialRectangle;collapsible=0;dropTarget=0;pointerEvents=0;fillColor=none;top=0;left=0;bottom=1;right=0;points=[[0,0.5],[1,0.5]];portConstraint=eastwest;" vertex="1" parent="KycW4tC0qBG2q9IRIVnm-123">
          <mxGeometry y="30" width="250" height="30" as="geometry" />
        </mxCell>
        <mxCell id="KycW4tC0qBG2q9IRIVnm-125" value="PK" style="shape=partialRectangle;connectable=0;fillColor=none;top=0;left=0;bottom=0;right=0;fontStyle=1;overflow=hidden;" vertex="1" parent="KycW4tC0qBG2q9IRIVnm-124">
          <mxGeometry width="80" height="30" as="geometry" />
        </mxCell>
        <mxCell id="KycW4tC0qBG2q9IRIVnm-126" value="UniqueID" style="shape=partialRectangle;connectable=0;fillColor=none;top=0;left=0;bottom=0;right=0;align=left;spacingLeft=6;fontStyle=5;overflow=hidden;" vertex="1" parent="KycW4tC0qBG2q9IRIVnm-124">
          <mxGeometry x="80" width="170" height="30" as="geometry" />
        </mxCell>
        <mxCell id="KycW4tC0qBG2q9IRIVnm-127" value="" style="shape=partialRectangle;collapsible=0;dropTarget=0;pointerEvents=0;fillColor=none;top=0;left=0;bottom=0;right=0;points=[[0,0.5],[1,0.5]];portConstraint=eastwest;" vertex="1" parent="KycW4tC0qBG2q9IRIVnm-123">
          <mxGeometry y="60" width="250" height="30" as="geometry" />
        </mxCell>
        <mxCell id="KycW4tC0qBG2q9IRIVnm-128" value="FK1" style="shape=partialRectangle;connectable=0;fillColor=none;top=0;left=0;bottom=0;right=0;editable=1;overflow=hidden;" vertex="1" parent="KycW4tC0qBG2q9IRIVnm-127">
          <mxGeometry width="80" height="30" as="geometry" />
        </mxCell>
        <mxCell id="KycW4tC0qBG2q9IRIVnm-129" value="Event id" style="shape=partialRectangle;connectable=0;fillColor=none;top=0;left=0;bottom=0;right=0;align=left;spacingLeft=6;overflow=hidden;" vertex="1" parent="KycW4tC0qBG2q9IRIVnm-127">
          <mxGeometry x="80" width="170" height="30" as="geometry" />
        </mxCell>
        <mxCell id="KycW4tC0qBG2q9IRIVnm-130" value="" style="shape=partialRectangle;collapsible=0;dropTarget=0;pointerEvents=0;fillColor=none;top=0;left=0;bottom=0;right=0;points=[[0,0.5],[1,0.5]];portConstraint=eastwest;" vertex="1" parent="KycW4tC0qBG2q9IRIVnm-123">
          <mxGeometry y="90" width="250" height="30" as="geometry" />
        </mxCell>
        <mxCell id="KycW4tC0qBG2q9IRIVnm-131" value="room" style="shape=partialRectangle;connectable=0;fillColor=none;top=0;left=0;bottom=0;right=0;editable=1;overflow=hidden;" vertex="1" parent="KycW4tC0qBG2q9IRIVnm-130">
          <mxGeometry width="80" height="30" as="geometry" />
        </mxCell>
        <mxCell id="KycW4tC0qBG2q9IRIVnm-132" value="number" style="shape=partialRectangle;connectable=0;fillColor=none;top=0;left=0;bottom=0;right=0;align=left;spacingLeft=6;overflow=hidden;" vertex="1" parent="KycW4tC0qBG2q9IRIVnm-130">
          <mxGeometry x="80" width="170" height="30" as="geometry" />
        </mxCell>
        <mxCell id="KycW4tC0qBG2q9IRIVnm-133" value="" style="shape=partialRectangle;collapsible=0;dropTarget=0;pointerEvents=0;fillColor=none;top=0;left=0;bottom=0;right=0;points=[[0,0.5],[1,0.5]];portConstraint=eastwest;" vertex="1" parent="KycW4tC0qBG2q9IRIVnm-123">
          <mxGeometry y="120" width="250" height="30" as="geometry" />
        </mxCell>
        <mxCell id="KycW4tC0qBG2q9IRIVnm-134" value="FK 2" style="shape=partialRectangle;connectable=0;fillColor=none;top=0;left=0;bottom=0;right=0;editable=1;overflow=hidden;" vertex="1" parent="KycW4tC0qBG2q9IRIVnm-133">
          <mxGeometry width="80" height="30" as="geometry" />
        </mxCell>
        <mxCell id="KycW4tC0qBG2q9IRIVnm-135" value="Movie id" style="shape=partialRectangle;connectable=0;fillColor=none;top=0;left=0;bottom=0;right=0;align=left;spacingLeft=6;overflow=hidden;" vertex="1" parent="KycW4tC0qBG2q9IRIVnm-133">
          <mxGeometry x="80" width="170" height="30" as="geometry" />
        </mxCell>
        <mxCell id="KycW4tC0qBG2q9IRIVnm-138" value="" style="edgeStyle=entityRelationEdgeStyle;fontSize=12;html=1;endArrow=ERmandOne;startArrow=ERmandOne;fontColor=#1D3557;strokeColor=#457B9D;fillColor=#A8DADC;exitX=1;exitY=0.214;exitDx=0;exitDy=0;exitPerimeter=0;entryX=-0.007;entryY=0.11;entryDx=0;entryDy=0;entryPerimeter=0;" edge="1" parent="1" source="KycW4tC0qBG2q9IRIVnm-124" target="KycW4tC0qBG2q9IRIVnm-39">
          <mxGeometry width="100" height="100" relative="1" as="geometry">
            <mxPoint x="800" y="660" as="sourcePoint" />
            <mxPoint x="900" y="560" as="targetPoint" />
          </mxGeometry>
        </mxCell>
      </root>
    </mxGraphModel>
  </diagram>
</mxfile>
